{
    "asset" : {
        "generator" : "Khronos glTF Blender I/O v1.4.40",
        "version" : "2.0"
    },
    "scene" : 0,
    "scenes" : [
        {
            "name" : "Scene",
            "nodes" : [
                0,
                1,
                2,
                3,
                4,
                5
            ]
        }
    ],
    "nodes" : [
        {
            "mesh" : 0,
            "name" : "Cube",
            "scale" : [
                1.6431245803833008,
                1.6431245803833008,
                1.7689437866210938
            ],
            "translation" : [
                0,
                1.5546510219573975,
                17.528030395507812
            ]
        },
        {
            "mesh" : 1,
            "name" : "Cube.001",
            "scale" : [
                3.541931629180908,
                2.7816288471221924,
                3.376483678817749
            ],
            "translation" : [
                -4.915343761444092,
                2.627573013305664,
                9.300888061523438
            ]
        },
        {
            "mesh" : 2,
            "name" : "Cube.002",
            "scale" : [
                3.541931629180908,
                4.36885929107666,
                4.279745578765869
            ],
            "translation" : [
                3.050201177597046,
                4.275814056396484,
                -0.00891268253326416
            ]
        },
        {
            "mesh" : 3,
            "name" : "Cube.004",
            "scale" : [
                2.5550129413604736,
                2.37351131439209,
                2.37351131439209
            ],
            "translation" : [
                3.0001111030578613,
                8.359106063842773,
                -10.265945434570312
            ]
        },
        {
            "mesh" : 4,
            "name" : "Cube.003",
            "scale" : [
                2.5550129413604736,
                2.37351131439209,
                2.37351131439209
            ],
            "translation" : [
                -2.3718514442443848,
                7.670525074005127,
                -17.526674270629883
            ]
        },
        {
            "mesh" : 5,
            "name" : "Cube.005",
            "scale" : [
                2.5550129413604736,
                2.37351131439209,
                2.37351131439209
            ],
            "translation" : [
                0.5118913650512695,
                8.703598022460938,
                -25.916160583496094
            ]
        }
    ],
    "materials" : [
        {
            "doubleSided" : true,
            "name" : "Material.007",
            "pbrMetallicRoughness" : {
                "baseColorTexture" : {
                    "index" : 0,
                    "texCoord" : 0
                },
                "metallicFactor" : 0,
                "roughnessFactor" : 0.5
            }
        },
        {
            "doubleSided" : true,
            "name" : "Material.008",
            "pbrMetallicRoughness" : {
                "baseColorTexture" : {
                    "index" : 1,
                    "texCoord" : 0
                },
                "metallicFactor" : 0,
                "roughnessFactor" : 0.5
            }
        },
        {
            "doubleSided" : true,
            "name" : "Material.009",
            "pbrMetallicRoughness" : {
                "baseColorTexture" : {
                    "index" : 2,
                    "texCoord" : 0
                },
                "metallicFactor" : 0,
                "roughnessFactor" : 0.5
            }
        },
        {
            "doubleSided" : true,
            "name" : "Material.013",
            "pbrMetallicRoughness" : {
                "baseColorTexture" : {
                    "index" : 3,
                    "texCoord" : 0
                },
                "metallicFactor" : 0,
                "roughnessFactor" : 0.5
            }
        }
    ],
    "meshes" : [
        {
            "name" : "Cube",
            "primitives" : [
                {
                    "attributes" : {
                        "POSITION" : 0,
                        "TEXCOORD_0" : 1
                    },
                    "indices" : 2,
                    "material" : 0
                }
            ]
        },
        {
            "name" : "Cube.008",
            "primitives" : [
                {
                    "attributes" : {
                        "POSITION" : 3,
                        "TEXCOORD_0" : 4
                    },
                    "indices" : 5,
                    "material" : 1
                }
            ]
        },
        {
            "name" : "Cube.009",
            "primitives" : [
                {
                    "attributes" : {
                        "POSITION" : 6,
                        "TEXCOORD_0" : 7
                    },
                    "indices" : 2,
                    "material" : 2
                }
            ]
        },
        {
            "name" : "Cube.014",
            "primitives" : [
                {
                    "attributes" : {
                        "POSITION" : 8,
                        "TEXCOORD_0" : 9
                    },
                    "indices" : 10,
                    "material" : 3
                }
            ]
        },
        {
            "name" : "Cube.015",
            "primitives" : [
                {
                    "attributes" : {
                        "POSITION" : 11,
                        "TEXCOORD_0" : 12
                    },
                    "indices" : 10,
                    "material" : 3
                }
            ]
        },
        {
            "name" : "Cube.016",
            "primitives" : [
                {
                    "attributes" : {
                        "POSITION" : 13,
                        "TEXCOORD_0" : 14
                    },
                    "indices" : 10,
                    "material" : 3
                }
            ]
        }
    ],
    "textures" : [
        {
            "sampler" : 0,
            "source" : 0
        },
        {
            "sampler" : 0,
            "source" : 1
        },
        {
            "sampler" : 0,
            "source" : 2
        },
        {
            "sampler" : 0,
            "source" : 3
        }
    ],
    "images" : [
        {
            "mimeType" : "image/png",
            "name" : "crate1_diffuse",
            "uri" : "crate1_diffuse.png"
        },
        {
            "mimeType" : "image/png",
            "name" : "crate0_diffuse",
            "uri" : "crate0_diffuse.png"
        },
        {
            "mimeType" : "image/png",
            "name" : "m-001",
            "uri" : "m-001.png"
        },
        {
            "mimeType" : "image/png",
            "name" : "crate1_diffuse",
            "uri" : "crate1_diffuse-1.png"
        }
    ],
    "accessors" : [
        {
            "bufferView" : 0,
            "componentType" : 5126,
            "count" : 22,
            "max" : [
                1,
                1,
                1
            ],
            "min" : [
                -1,
                -1,
                -1
            ],
            "type" : "VEC3"
        },
        {
            "bufferView" : 1,
            "componentType" : 5126,
            "count" : 22,
            "type" : "VEC2"
        },
        {
            "bufferView" : 2,
            "componentType" : 5123,
            "count" : 36,
            "type" : "SCALAR"
        },
        {
            "bufferView" : 3,
            "componentType" : 5126,
            "count" : 22,
            "max" : [
                1,
                1,
                1
            ],
            "min" : [
                -1,
                -1,
                -1
            ],
            "type" : "VEC3"
        },
        {
            "bufferView" : 4,
            "componentType" : 5126,
            "count" : 22,
            "type" : "VEC2"
        },
        {
            "bufferView" : 5,
            "componentType" : 5123,
            "count" : 36,
            "type" : "SCALAR"
        },
        {
            "bufferView" : 6,
            "componentType" : 5126,
            "count" : 22,
            "max" : [
                1,
                1,
                1
            ],
            "min" : [
                -1,
                -1,
                -1
            ],
            "type" : "VEC3"
        },
        {
            "bufferView" : 7,
            "componentType" : 5126,
            "count" : 22,
            "type" : "VEC2"
        },
        {
            "bufferView" : 8,
            "componentType" : 5126,
            "count" : 20,
            "max" : [
                1,
                1,
                1
            ],
            "min" : [
                -1,
                -1,
                -1
            ],
            "type" : "VEC3"
        },
        {
            "bufferView" : 9,
            "componentType" : 5126,
            "count" : 20,
            "type" : "VEC2"
        },
        {
            "bufferView" : 10,
            "componentType" : 5123,
            "count" : 36,
            "type" : "SCALAR"
        },
        {
            "bufferView" : 11,
            "componentType" : 5126,
            "count" : 20,
            "max" : [
                1,
                1,
                1
            ],
            "min" : [
                -1,
                -1,
                -1
            ],
            "type" : "VEC3"
        },
        {
            "bufferView" : 12,
            "componentType" : 5126,
            "count" : 20,
            "type" : "VEC2"
        },
        {
            "bufferView" : 13,
            "componentType" : 5126,
            "count" : 20,
            "max" : [
                1,
                1,
                1
            ],
            "min" : [
                -1,
                -1,
                -1
            ],
            "type" : "VEC3"
        },
        {
            "bufferView" : 14,
            "componentType" : 5126,
            "count" : 20,
            "type" : "VEC2"
        }
    ],
    "bufferViews" : [
        {
            "buffer" : 0,
            "byteLength" : 264,
            "byteOffset" : 0
        },
        {
            "buffer" : 0,
            "byteLength" : 176,
            "byteOffset" : 264
        },
        {
            "buffer" : 0,
            "byteLength" : 72,
            "byteOffset" : 440
        },
        {
            "buffer" : 0,
            "byteLength" : 264,
            "byteOffset" : 512
        },
        {
            "buffer" : 0,
            "byteLength" : 176,
            "byteOffset" : 776
        },
        {
            "buffer" : 0,
            "byteLength" : 72,
            "byteOffset" : 952
        },
        {
            "buffer" : 0,
            "byteLength" : 264,
            "byteOffset" : 1024
        },
        {
            "buffer" : 0,
            "byteLength" : 176,
            "byteOffset" : 1288
        },
        {
            "buffer" : 0,
            "byteLength" : 240,
            "byteOffset" : 1464
        },
        {
            "buffer" : 0,
            "byteLength" : 160,
            "byteOffset" : 1704
        },
        {
            "buffer" : 0,
            "byteLength" : 72,
            "byteOffset" : 1864
        },
        {
            "buffer" : 0,
            "byteLength" : 240,
            "byteOffset" : 1936
        },
        {
            "buffer" : 0,
            "byteLength" : 160,
            "byteOffset" : 2176
        },
        {
            "buffer" : 0,
            "byteLength" : 240,
            "byteOffset" : 2336
        },
        {
            "buffer" : 0,
            "byteLength" : 160,
            "byteOffset" : 2576
        }
    ],
    "samplers" : [
        {
            "magFilter" : 9729,
            "minFilter" : 9986
        }
    ],
    "buffers" : [
        {
            "byteLength" : 2736,
            "uri" : "obsticles.bin"
        }
    ]
}
