{
    "asset" : {
        "generator" : "Khronos glTF Blender I/O v1.4.40",
        "version" : "2.0"
    },
    "scene" : 0,
    "scenes" : [
        {
            "name" : "Scene",
            "nodes" : [
                1,
                2,
                3,
                4,
                5,
                6,
                7,
                8,
                9,
                10,
                11,
                12
            ]
        }
    ],
    "nodes" : [
        {
            "camera" : 0,
            "name" : "Camera",
            "rotation" : [
                -0.7071067690849304,
                0,
                0,
                0.7071067690849304
            ]
        },
        {
            "children" : [
                0
            ],
            "name" : "",
            "rotation" : [
                0.7071068286895752,
                0,
                0,
                0.7071068286895752
            ],
            "translation" : [
                -1.7924747467041016,
                3.0274524688720703,
                31.568603515625
            ]
        },
        {
            "mesh" : 0,
            "name" : "Plane",
            "scale" : [
                25.755661010742188,
                25.755661010742188,
                35.10149383544922
            ]
        },
        {
            "mesh" : 1,
            "name" : "Wall2",
            "rotation" : [
                0,
                0.7071067690849304,
                0,
                0.7071068286895752
            ],
            "scale" : [
                0.49949759244918823,
                12.080631256103516,
                14.273114204406738
            ],
            "translation" : [
                12.872379302978516,
                9.972795486450195,
                40.43137741088867
            ]
        },
        {
            "mesh" : 2,
            "name" : "Cube",
            "scale" : [
                1.6431245803833008,
                1.6431245803833008,
                1.7689437866210938
            ],
            "translation" : [
                0,
                1.5546510219573975,
                17.528030395507812
            ]
        },
        {
            "mesh" : 3,
            "name" : "Cube.001",
            "scale" : [
                3.541931629180908,
                2.7816288471221924,
                3.376483678817749
            ],
            "translation" : [
                -4.915343761444092,
                2.627573013305664,
                9.300888061523438
            ]
        },
        {
            "mesh" : 4,
            "name" : "Cube.002",
            "scale" : [
                3.541931629180908,
                4.36885929107666,
                4.279745578765869
            ],
            "translation" : [
                3.050201177597046,
                4.275814056396484,
                -0.00891268253326416
            ]
        },
        {
            "mesh" : 5,
            "name" : "Cube.004",
            "scale" : [
                2.5550129413604736,
                2.37351131439209,
                2.37351131439209
            ],
            "translation" : [
                3.0001111030578613,
                8.359106063842773,
                -10.265945434570312
            ]
        },
        {
            "mesh" : 6,
            "name" : "Cube.003",
            "scale" : [
                2.5550129413604736,
                2.37351131439209,
                2.37351131439209
            ],
            "translation" : [
                -2.3718514442443848,
                7.670525074005127,
                -17.526674270629883
            ]
        },
        {
            "mesh" : 7,
            "name" : "Cube.005",
            "scale" : [
                2.5550129413604736,
                2.37351131439209,
                2.37351131439209
            ],
            "translation" : [
                0.5118913650512695,
                8.703598022460938,
                -25.916160583496094
            ]
        },
        {
            "mesh" : 8,
            "name" : "Cube.006",
            "scale" : [
                2.5550129413604736,
                3.0979998111724854,
                2.37351131439209
            ],
            "translation" : [
                3.0001111030578613,
                2.9389352798461914,
                -10.265945434570312
            ]
        },
        {
            "mesh" : 9,
            "name" : "Cube.007",
            "scale" : [
                2.5550129413604736,
                2.8738982677459717,
                2.37351131439209
            ],
            "translation" : [
                -2.3718514442443848,
                2.4631400108337402,
                -17.526674270629883
            ]
        },
        {
            "mesh" : 10,
            "name" : "Cube.008",
            "scale" : [
                2.5192160606384277,
                3.226253032684326,
                2.3889546394348145
            ],
            "translation" : [
                0.5118913650512695,
                3.243410587310791,
                -25.916160583496094
            ]
        }
    ],
    "cameras" : [
        {
            "name" : "Camera",
            "perspective" : {
                "aspectRatio" : 1.7777777777777777,
                "yfov" : 0.39959652046304894,
                "zfar" : 100,
                "znear" : 0.10000000149011612
            },
            "type" : "perspective"
        }
    ],
    "materials" : [
        {
            "doubleSided" : true,
            "name" : "Material.003",
            "pbrMetallicRoughness" : {
                "baseColorTexture" : {
                    "index" : 0,
                    "texCoord" : 0
                },
                "metallicFactor" : 0,
                "roughnessFactor" : 0.5
            }
        },
        {
            "doubleSided" : true,
            "name" : "Material.006",
            "pbrMetallicRoughness" : {
                "baseColorTexture" : {
                    "index" : 1,
                    "texCoord" : 0
                },
                "metallicFactor" : 0,
                "roughnessFactor" : 0.5
            }
        },
        {
            "doubleSided" : true,
            "name" : "Material.007",
            "pbrMetallicRoughness" : {
                "baseColorTexture" : {
                    "index" : 2,
                    "texCoord" : 0
                },
                "metallicFactor" : 0,
                "roughnessFactor" : 0.5
            }
        },
        {
            "doubleSided" : true,
            "name" : "Material.008",
            "pbrMetallicRoughness" : {
                "baseColorTexture" : {
                    "index" : 3,
                    "texCoord" : 0
                },
                "metallicFactor" : 0,
                "roughnessFactor" : 0.5
            }
        },
        {
            "doubleSided" : true,
            "name" : "Material.009",
            "pbrMetallicRoughness" : {
                "baseColorTexture" : {
                    "index" : 4,
                    "texCoord" : 0
                },
                "metallicFactor" : 0,
                "roughnessFactor" : 0.5
            }
        },
        {
            "doubleSided" : true,
            "name" : "Material.013",
            "pbrMetallicRoughness" : {
                "baseColorTexture" : {
                    "index" : 5,
                    "texCoord" : 0
                },
                "metallicFactor" : 0,
                "roughnessFactor" : 0.5
            }
        }
    ],
    "meshes" : [
        {
            "name" : "Plane",
            "primitives" : [
                {
                    "attributes" : {
                        "POSITION" : 0,
                        "TEXCOORD_0" : 1
                    },
                    "indices" : 2,
                    "material" : 0
                }
            ]
        },
        {
            "name" : "Cube.004",
            "primitives" : [
                {
                    "attributes" : {
                        "POSITION" : 3,
                        "TEXCOORD_0" : 4
                    },
                    "indices" : 5,
                    "material" : 1
                }
            ]
        },
        {
            "name" : "Cube",
            "primitives" : [
                {
                    "attributes" : {
                        "POSITION" : 6,
                        "TEXCOORD_0" : 7
                    },
                    "indices" : 8,
                    "material" : 2
                }
            ]
        },
        {
            "name" : "Cube.008",
            "primitives" : [
                {
                    "attributes" : {
                        "POSITION" : 9,
                        "TEXCOORD_0" : 10
                    },
                    "indices" : 11,
                    "material" : 3
                }
            ]
        },
        {
            "name" : "Cube.009",
            "primitives" : [
                {
                    "attributes" : {
                        "POSITION" : 12,
                        "TEXCOORD_0" : 13
                    },
                    "indices" : 8,
                    "material" : 4
                }
            ]
        },
        {
            "name" : "Cube.014",
            "primitives" : [
                {
                    "attributes" : {
                        "POSITION" : 14,
                        "TEXCOORD_0" : 15
                    },
                    "indices" : 16,
                    "material" : 5
                }
            ]
        },
        {
            "name" : "Cube.015",
            "primitives" : [
                {
                    "attributes" : {
                        "POSITION" : 17,
                        "TEXCOORD_0" : 18
                    },
                    "indices" : 16,
                    "material" : 5
                }
            ]
        },
        {
            "name" : "Cube.016",
            "primitives" : [
                {
                    "attributes" : {
                        "POSITION" : 19,
                        "TEXCOORD_0" : 20
                    },
                    "indices" : 16,
                    "material" : 5
                }
            ]
        },
        {
            "name" : "Cube.018",
            "primitives" : [
                {
                    "attributes" : {
                        "POSITION" : 21,
                        "TEXCOORD_0" : 22
                    },
                    "indices" : 16,
                    "material" : 5
                }
            ]
        },
        {
            "name" : "Cube.022",
            "primitives" : [
                {
                    "attributes" : {
                        "POSITION" : 23,
                        "TEXCOORD_0" : 24
                    },
                    "indices" : 16,
                    "material" : 5
                }
            ]
        },
        {
            "name" : "Cube.023",
            "primitives" : [
                {
                    "attributes" : {
                        "POSITION" : 25,
                        "TEXCOORD_0" : 26
                    },
                    "indices" : 16,
                    "material" : 5
                }
            ]
        }
    ],
    "textures" : [
        {
            "sampler" : 0,
            "source" : 0
        },
        {
            "sampler" : 0,
            "source" : 1
        },
        {
            "sampler" : 0,
            "source" : 2
        },
        {
            "sampler" : 0,
            "source" : 3
        },
        {
            "sampler" : 0,
            "source" : 4
        },
        {
            "sampler" : 0,
            "source" : 5
        }
    ],
    "images" : [
        {
            "mimeType" : "image/jpeg",
            "name" : "mesopotamia_by_darkwood67",
            "uri" : "mesopotamia_by_darkwood67.jpg"
        },
        {
            "mimeType" : "image/png",
            "name" : "Paving_stone_02_1K_Base_Color",
            "uri" : "Paving_stone_02_1K_Base_Color.png"
        },
        {
            "mimeType" : "image/png",
            "name" : "crate1_diffuse",
            "uri" : "crate1_diffuse.png"
        },
        {
            "mimeType" : "image/png",
            "name" : "crate0_diffuse",
            "uri" : "crate0_diffuse.png"
        },
        {
            "mimeType" : "image/png",
            "name" : "m-001",
            "uri" : "m-001.png"
        },
        {
            "mimeType" : "image/png",
            "name" : "crate1_diffuse",
            "uri" : "crate1_diffuse-1.png"
        }
    ],
    "accessors" : [
        {
            "bufferView" : 0,
            "componentType" : 5126,
            "count" : 4,
            "max" : [
                1,
                0,
                1
            ],
            "min" : [
                -1,
                0,
                -1
            ],
            "type" : "VEC3"
        },
        {
            "bufferView" : 1,
            "componentType" : 5126,
            "count" : 4,
            "type" : "VEC2"
        },
        {
            "bufferView" : 2,
            "componentType" : 5123,
            "count" : 6,
            "type" : "SCALAR"
        },
        {
            "bufferView" : 3,
            "componentType" : 5126,
            "count" : 641,
            "max" : [
                1,
                1,
                1
            ],
            "min" : [
                -1,
                -1,
                -1
            ],
            "type" : "VEC3"
        },
        {
            "bufferView" : 4,
            "componentType" : 5126,
            "count" : 641,
            "type" : "VEC2"
        },
        {
            "bufferView" : 5,
            "componentType" : 5123,
            "count" : 2304,
            "type" : "SCALAR"
        },
        {
            "bufferView" : 6,
            "componentType" : 5126,
            "count" : 22,
            "max" : [
                1,
                1,
                1
            ],
            "min" : [
                -1,
                -1,
                -1
            ],
            "type" : "VEC3"
        },
        {
            "bufferView" : 7,
            "componentType" : 5126,
            "count" : 22,
            "type" : "VEC2"
        },
        {
            "bufferView" : 8,
            "componentType" : 5123,
            "count" : 36,
            "type" : "SCALAR"
        },
        {
            "bufferView" : 9,
            "componentType" : 5126,
            "count" : 22,
            "max" : [
                1,
                1,
                1
            ],
            "min" : [
                -1,
                -1,
                -1
            ],
            "type" : "VEC3"
        },
        {
            "bufferView" : 10,
            "componentType" : 5126,
            "count" : 22,
            "type" : "VEC2"
        },
        {
            "bufferView" : 11,
            "componentType" : 5123,
            "count" : 36,
            "type" : "SCALAR"
        },
        {
            "bufferView" : 12,
            "componentType" : 5126,
            "count" : 22,
            "max" : [
                1,
                1,
                1
            ],
            "min" : [
                -1,
                -1,
                -1
            ],
            "type" : "VEC3"
        },
        {
            "bufferView" : 13,
            "componentType" : 5126,
            "count" : 22,
            "type" : "VEC2"
        },
        {
            "bufferView" : 14,
            "componentType" : 5126,
            "count" : 20,
            "max" : [
                1,
                1,
                1
            ],
            "min" : [
                -1,
                -1,
                -1
            ],
            "type" : "VEC3"
        },
        {
            "bufferView" : 15,
            "componentType" : 5126,
            "count" : 20,
            "type" : "VEC2"
        },
        {
            "bufferView" : 16,
            "componentType" : 5123,
            "count" : 36,
            "type" : "SCALAR"
        },
        {
            "bufferView" : 17,
            "componentType" : 5126,
            "count" : 20,
            "max" : [
                1,
                1,
                1
            ],
            "min" : [
                -1,
                -1,
                -1
            ],
            "type" : "VEC3"
        },
        {
            "bufferView" : 18,
            "componentType" : 5126,
            "count" : 20,
            "type" : "VEC2"
        },
        {
            "bufferView" : 19,
            "componentType" : 5126,
            "count" : 20,
            "max" : [
                1,
                1,
                1
            ],
            "min" : [
                -1,
                -1,
                -1
            ],
            "type" : "VEC3"
        },
        {
            "bufferView" : 20,
            "componentType" : 5126,
            "count" : 20,
            "type" : "VEC2"
        },
        {
            "bufferView" : 21,
            "componentType" : 5126,
            "count" : 20,
            "max" : [
                1,
                1,
                1
            ],
            "min" : [
                -1,
                -1,
                -1
            ],
            "type" : "VEC3"
        },
        {
            "bufferView" : 22,
            "componentType" : 5126,
            "count" : 20,
            "type" : "VEC2"
        },
        {
            "bufferView" : 23,
            "componentType" : 5126,
            "count" : 20,
            "max" : [
                1,
                1,
                1
            ],
            "min" : [
                -1,
                -1,
                -1
            ],
            "type" : "VEC3"
        },
        {
            "bufferView" : 24,
            "componentType" : 5126,
            "count" : 20,
            "type" : "VEC2"
        },
        {
            "bufferView" : 25,
            "componentType" : 5126,
            "count" : 20,
            "max" : [
                1,
                1,
                1
            ],
            "min" : [
                -1,
                -1,
                -1
            ],
            "type" : "VEC3"
        },
        {
            "bufferView" : 26,
            "componentType" : 5126,
            "count" : 20,
            "type" : "VEC2"
        }
    ],
    "bufferViews" : [
        {
            "buffer" : 0,
            "byteLength" : 48,
            "byteOffset" : 0
        },
        {
            "buffer" : 0,
            "byteLength" : 32,
            "byteOffset" : 48
        },
        {
            "buffer" : 0,
            "byteLength" : 12,
            "byteOffset" : 80
        },
        {
            "buffer" : 0,
            "byteLength" : 7692,
            "byteOffset" : 92
        },
        {
            "buffer" : 0,
            "byteLength" : 5128,
            "byteOffset" : 7784
        },
        {
            "buffer" : 0,
            "byteLength" : 4608,
            "byteOffset" : 12912
        },
        {
            "buffer" : 0,
            "byteLength" : 264,
            "byteOffset" : 17520
        },
        {
            "buffer" : 0,
            "byteLength" : 176,
            "byteOffset" : 17784
        },
        {
            "buffer" : 0,
            "byteLength" : 72,
            "byteOffset" : 17960
        },
        {
            "buffer" : 0,
            "byteLength" : 264,
            "byteOffset" : 18032
        },
        {
            "buffer" : 0,
            "byteLength" : 176,
            "byteOffset" : 18296
        },
        {
            "buffer" : 0,
            "byteLength" : 72,
            "byteOffset" : 18472
        },
        {
            "buffer" : 0,
            "byteLength" : 264,
            "byteOffset" : 18544
        },
        {
            "buffer" : 0,
            "byteLength" : 176,
            "byteOffset" : 18808
        },
        {
            "buffer" : 0,
            "byteLength" : 240,
            "byteOffset" : 18984
        },
        {
            "buffer" : 0,
            "byteLength" : 160,
            "byteOffset" : 19224
        },
        {
            "buffer" : 0,
            "byteLength" : 72,
            "byteOffset" : 19384
        },
        {
            "buffer" : 0,
            "byteLength" : 240,
            "byteOffset" : 19456
        },
        {
            "buffer" : 0,
            "byteLength" : 160,
            "byteOffset" : 19696
        },
        {
            "buffer" : 0,
            "byteLength" : 240,
            "byteOffset" : 19856
        },
        {
            "buffer" : 0,
            "byteLength" : 160,
            "byteOffset" : 20096
        },
        {
            "buffer" : 0,
            "byteLength" : 240,
            "byteOffset" : 20256
        },
        {
            "buffer" : 0,
            "byteLength" : 160,
            "byteOffset" : 20496
        },
        {
            "buffer" : 0,
            "byteLength" : 240,
            "byteOffset" : 20656
        },
        {
            "buffer" : 0,
            "byteLength" : 160,
            "byteOffset" : 20896
        },
        {
            "buffer" : 0,
            "byteLength" : 240,
            "byteOffset" : 21056
        },
        {
            "buffer" : 0,
            "byteLength" : 160,
            "byteOffset" : 21296
        }
    ],
    "samplers" : [
        {
            "magFilter" : 9729,
            "minFilter" : 9986
        }
    ],
    "buffers" : [
        {
            "byteLength" : 21456,
            "uri" : "test1.bin"
        }
    ]
}
