{
    "asset" : {
        "generator" : "Khronos glTF Blender I/O v1.4.40",
        "version" : "2.0"
    },
    "scene" : 0,
    "scenes" : [
        {
            "name" : "Scene",
            "nodes" : [
                1,
                2,
                3,
                4,
                5
            ]
        }
    ],
    "nodes" : [
        {
            "camera" : 0,
            "name" : "Camera",
            "rotation" : [
                -0.7071067690849304,
                0,
                0,
                0.7071067690849304
            ]
        },
        {
            "children" : [
                0
            ],
            "name" : "",
            "rotation" : [
                0.5322691798210144,
                -0.465652197599411,
                0.5311912894248962,
                0.4665762186050415
            ],
            "translation" : [
                -36.26774597167969,
                5.225282192230225,
                -0.6913794875144958
            ]
        },
        {
            "mesh" : 0,
            "name" : "Plane",
            "scale" : [
                45.34100341796875,
                28.879802703857422,
                28.879802703857422
            ]
        },
        {
            "mesh" : 1,
            "name" : "Wall1",
            "scale" : [
                1,
                24.185564041137695,
                29.14702033996582
            ],
            "translation" : [
                -44.53291320800781,
                23.69059944152832,
                0
            ]
        },
        {
            "mesh" : 2,
            "name" : "Wall2",
            "rotation" : [
                0,
                0.7071067690849304,
                0,
                0.7071068286895752
            ],
            "scale" : [
                1,
                24.185564041137695,
                45.49043655395508
            ],
            "translation" : [
                -1.0424232482910156,
                23.69059944152832,
                28.452245712280273
            ]
        },
        {
            "mesh" : 3,
            "name" : "Wall3",
            "rotation" : [
                0,
                -0.7071068286895752,
                0,
                0.7071068286895752
            ],
            "scale" : [
                1,
                24.185564041137695,
                45.49043655395508
            ],
            "translation" : [
                -1.0424232482910156,
                23.69059944152832,
                -27.49997901916504
            ]
        }
    ],
    "cameras" : [
        {
            "name" : "Camera",
            "perspective" : {
                "aspectRatio" : 1.7777777777777777,
                "yfov" : 0.5954004346490906,
                "zfar" : 100,
                "znear" : 0.0010000000474974513
            },
            "type" : "perspective"
        }
    ],
    "materials" : [
        {
            "doubleSided" : true,
            "name" : "Material.001",
            "pbrMetallicRoughness" : {
                "baseColorTexture" : {
                    "index" : 0,
                    "texCoord" : 0
                },
                "metallicFactor" : 0,
                "roughnessFactor" : 0.5
            }
        },
        {
            "doubleSided" : true,
            "name" : "Material.003",
            "pbrMetallicRoughness" : {
                "baseColorTexture" : {
                    "index" : 1,
                    "texCoord" : 0
                },
                "metallicFactor" : 0,
                "roughnessFactor" : 0.5
            }
        },
        {
            "doubleSided" : true,
            "name" : "Material.002",
            "pbrMetallicRoughness" : {
                "baseColorTexture" : {
                    "index" : 2,
                    "texCoord" : 0
                },
                "metallicFactor" : 0,
                "roughnessFactor" : 0.5
            }
        }
    ],
    "meshes" : [
        {
            "name" : "Plane",
            "primitives" : [
                {
                    "attributes" : {
                        "POSITION" : 0,
                        "TEXCOORD_0" : 1
                    },
                    "indices" : 2,
                    "material" : 0
                }
            ]
        },
        {
            "name" : "Cube.001",
            "primitives" : [
                {
                    "attributes" : {
                        "POSITION" : 3,
                        "TEXCOORD_0" : 4
                    },
                    "indices" : 5,
                    "material" : 1
                }
            ]
        },
        {
            "name" : "Cube.003",
            "primitives" : [
                {
                    "attributes" : {
                        "POSITION" : 6,
                        "TEXCOORD_0" : 7
                    },
                    "indices" : 8,
                    "material" : 2
                }
            ]
        },
        {
            "name" : "Cube.004",
            "primitives" : [
                {
                    "attributes" : {
                        "POSITION" : 9,
                        "TEXCOORD_0" : 10
                    },
                    "indices" : 8,
                    "material" : 2
                }
            ]
        }
    ],
    "textures" : [
        {
            "sampler" : 0,
            "source" : 0
        },
        {
            "sampler" : 0,
            "source" : 1
        },
        {
            "sampler" : 0,
            "source" : 1
        }
    ],
    "images" : [
        {
            "mimeType" : "image/jpeg",
            "name" : "mesopotamia_by_darkwood67",
            "uri" : "mesopotamia_by_darkwood67.jpg"
        },
        {
            "mimeType" : "image/png",
            "name" : "Paving_stone_02_1K_Base_Color",
            "uri" : "Paving_stone_02_1K_Base_Color.png"
        }
    ],
    "accessors" : [
        {
            "bufferView" : 0,
            "componentType" : 5126,
            "count" : 81,
            "max" : [
                1,
                0,
                1
            ],
            "min" : [
                -1,
                0,
                -1
            ],
            "type" : "VEC3"
        },
        {
            "bufferView" : 1,
            "componentType" : 5126,
            "count" : 81,
            "type" : "VEC2"
        },
        {
            "bufferView" : 2,
            "componentType" : 5123,
            "count" : 384,
            "type" : "SCALAR"
        },
        {
            "bufferView" : 3,
            "componentType" : 5126,
            "count" : 298,
            "max" : [
                1,
                1,
                1
            ],
            "min" : [
                -1,
                -1,
                -1
            ],
            "type" : "VEC3"
        },
        {
            "bufferView" : 4,
            "componentType" : 5126,
            "count" : 298,
            "type" : "VEC2"
        },
        {
            "bufferView" : 5,
            "componentType" : 5123,
            "count" : 498,
            "type" : "SCALAR"
        },
        {
            "bufferView" : 6,
            "componentType" : 5126,
            "count" : 641,
            "max" : [
                1,
                1,
                1
            ],
            "min" : [
                -1,
                -1,
                -1
            ],
            "type" : "VEC3"
        },
        {
            "bufferView" : 7,
            "componentType" : 5126,
            "count" : 641,
            "type" : "VEC2"
        },
        {
            "bufferView" : 8,
            "componentType" : 5123,
            "count" : 2304,
            "type" : "SCALAR"
        },
        {
            "bufferView" : 9,
            "componentType" : 5126,
            "count" : 641,
            "max" : [
                1,
                1,
                1
            ],
            "min" : [
                -1,
                -1,
                -1
            ],
            "type" : "VEC3"
        },
        {
            "bufferView" : 10,
            "componentType" : 5126,
            "count" : 641,
            "type" : "VEC2"
        }
    ],
    "bufferViews" : [
        {
            "buffer" : 0,
            "byteLength" : 972,
            "byteOffset" : 0
        },
        {
            "buffer" : 0,
            "byteLength" : 648,
            "byteOffset" : 972
        },
        {
            "buffer" : 0,
            "byteLength" : 768,
            "byteOffset" : 1620
        },
        {
            "buffer" : 0,
            "byteLength" : 3576,
            "byteOffset" : 2388
        },
        {
            "buffer" : 0,
            "byteLength" : 2384,
            "byteOffset" : 5964
        },
        {
            "buffer" : 0,
            "byteLength" : 996,
            "byteOffset" : 8348
        },
        {
            "buffer" : 0,
            "byteLength" : 7692,
            "byteOffset" : 9344
        },
        {
            "buffer" : 0,
            "byteLength" : 5128,
            "byteOffset" : 17036
        },
        {
            "buffer" : 0,
            "byteLength" : 4608,
            "byteOffset" : 22164
        },
        {
            "buffer" : 0,
            "byteLength" : 7692,
            "byteOffset" : 26772
        },
        {
            "buffer" : 0,
            "byteLength" : 5128,
            "byteOffset" : 34464
        }
    ],
    "samplers" : [
        {
            "magFilter" : 9729,
            "minFilter" : 9986
        }
    ],
    "buffers" : [
        {
            "byteLength" : 39592,
            "uri" : "level1.bin"
        }
    ]
}
